<svg width="24" height="24" viewBox="0 0 24 24" fill="none" xmlns="http://www.w3.org/2000/svg">
<g clip-path="url(#clip0_126_40)">
<path d="M24.0938 11.1562C24.0938 11.8457 24.0938 12.5352 24.061 13.289C24.0189 13.4304 24.0034 13.5072 24.0013 13.5844C23.9772 14.4736 23.86 14.5499 22.991 14.6354C21.8357 14.749 20.843 15.2544 20.1694 16.2124C19.2444 17.5278 19.103 18.9378 19.8558 20.4019C20.0272 20.7351 20.092 21.0964 19.7388 21.3662C18.7319 22.1357 17.6583 22.7905 16.4705 23.2513C16.0435 23.4169 15.7586 23.3251 15.4882 22.9455C15.2247 22.5758 14.9156 22.2194 14.5634 21.9356C12.7564 20.479 10.1408 20.8857 8.83596 22.8024C8.41967 23.414 8.24667 23.448 7.56995 23.1533C6.51905 22.6957 5.53219 22.1427 4.64607 21.4063C4.17277 21.0129 4.12456 20.9275 4.39997 20.3681C4.72564 19.7067 4.95202 18.9997 4.86028 18.2722C4.58185 16.0644 3.04099 14.6621 0.860037 14.5337C0.509448 14.5131 0.299075 14.3489 0.25 14C0.0661899 13.0441 0.156198 13.3555 0.09375 13.0312C0.0937499 12.373 0.09375 11.7148 0.126591 10.9921C0.169305 10.757 0.166258 10.5844 0.191315 10.416C0.293237 9.73108 0.519017 9.55074 0.936696 9.55336C2.60671 9.56382 4.08357 8.45083 4.59378 6.85787C4.93184 5.80236 4.8857 4.76104 4.36663 3.76057C4.21203 3.46259 4.06962 3.1464 4.39721 2.87871C5.37085 2.08309 6.46438 1.49795 7.62093 1.0071C8.13521 0.788833 8.45859 0.842341 8.71642 1.34507C8.81285 1.53309 8.97236 1.69265 9.11898 1.85044C10.81 3.6703 14.0552 3.61762 15.4802 1.20063C15.6347 0.938593 15.8513 0.790968 16.2161 0.921637C17.4009 1.34599 18.4809 1.94553 19.4651 2.72648C20.0574 3.19646 20.078 3.25167 19.7537 3.90523C19.4388 4.53966 19.24 5.2216 19.3274 5.91504C19.6058 8.12244 21.146 9.52534 23.3274 9.65379C23.678 9.67443 23.8608 9.83401 23.9099 10.1829C23.9559 10.5095 24.0313 10.832 24.0938 11.1562ZM16.2181 7.73365C14.7697 6.37786 13.0635 5.87059 11.1093 6.18429C9.45291 6.45017 8.10478 7.26196 7.17919 8.644C5.70782 10.841 5.63035 13.1646 7.06 15.3815C8.33487 17.3583 10.454 18.4567 13.1983 18.0059C15.7253 17.5907 17.8153 15.3721 18.079 12.8229C18.28 10.8792 17.7356 9.15009 16.2181 7.73365Z" fill="url(#paint0_angular_126_40)"/>
<path d="M16.2417 7.75734C17.7356 9.15009 18.28 10.8792 18.0789 12.8229C17.8152 15.3721 15.7253 17.5907 13.1983 18.0059C10.454 18.4567 8.33487 17.3583 7.05999 15.3815C5.63034 13.1646 5.70782 10.841 7.17919 8.644C8.10477 7.26196 9.4529 6.45018 11.1093 6.18429C13.0635 5.87059 14.7697 6.37786 16.2417 7.75734ZM14.4807 8.81074C12.7565 7.52993 10.141 7.94584 8.88743 9.59399C7.66655 11.1991 7.82707 13.7948 9.49649 15.2079C11.0559 16.5279 13.7861 16.3913 15.2135 14.6859C16.6111 13.016 16.377 10.1362 14.4807 8.81074Z" fill="url(#paint1_angular_126_40)"/>
<path d="M14.5054 8.83436C16.377 10.1362 16.6112 13.016 15.2135 14.6859C13.7861 16.3913 11.0559 16.5279 9.49651 15.2079C7.82708 13.7948 7.66657 11.1992 8.88745 9.59399C10.141 7.94585 12.7565 7.52994 14.5054 8.83436Z" fill="url(#paint2_linear_126_40)"/>
</g>
<defs>
<radialGradient id="paint0_angular_126_40" cx="0" cy="0" r="1" gradientUnits="userSpaceOnUse" gradientTransform="translate(12.0938 12.1033) rotate(90.4009) scale(13.397 14.3156)">
<stop offset="0.400869" stop-color="#8B9299"/>
<stop offset="0.899032" stop-color="#5B758D"/>
</radialGradient>
<radialGradient id="paint1_angular_126_40" cx="0" cy="0" r="1" gradientUnits="userSpaceOnUse" gradientTransform="translate(12.0748 12.1006) rotate(-132.948) scale(10.3837 10.4503)">
<stop offset="0.500223" stop-color="#FEFEFE"/>
<stop offset="1" stop-color="#C2C8CC"/>
</radialGradient>
<linearGradient id="paint2_linear_126_40" x1="9.5" y1="9" x2="14.5" y2="15.5" gradientUnits="userSpaceOnUse">
<stop stop-color="#0668BB"/>
<stop offset="1" stop-color="#114B8C"/>
</linearGradient>
<clipPath id="clip0_126_40">
<rect width="24" height="24" fill="white"/>
</clipPath>
</defs>
</svg>
